<?xml version="1.0"?><svg width="420" height="360" xmlns="http://www.w3.org/2000/svg">
 <title>moto</title>
 <metadata id="metadata6040">image/svg+xmlSymbol: MotorradPurodha Blissenbachhttp://commons.mediawiki.org/wiki/Image:Zusatzzeichen_1046-12.svg</metadata>

 <g>
  <title>Layer 1</title>
  <g id="g3132" transform="matrix(0.4682551676883326,0,0,0.4682551676883326,5.68541924371079,28.391523074322905) ">
   <path fill="black" fill-rule="evenodd" stroke-width="1px" id="path4749" d="m537.281494,509.304382c-62.798401,-3.164276 -155.202271,7.894897 -186.204529,-31.3992c-14.206055,-74.769348 -54.800781,-112.406616 -124.50145,-113.183136c-42.795761,-82.648285 34.888596,-95.599731 87.990768,-116.834198c3.373291,38.415619 1.306274,78.347382 62.068176,100.769501c2.439087,-11.887726 7.423096,-21.594116 23.366821,-21.906433l89.816284,0.365112l63.528625,-49.654541c10.266357,16.32785 30.638489,37.249176 30.668945,48.924316l96.388245,0.365112c7.019287,5.978607 12.972839,21.842834 -1.095276,37.606018c-57.741333,-1.752747 -162.68689,4.555328 -142.026611,144.947449z"/>
   <path fill="black" fill-rule="evenodd" stroke-width="1px" id="path5636" d="m380.606323,193.273026l0.258179,-34.043533l38.122314,-5.174133l0,-27.017929l-38.896851,6.464996c2.860535,-24.340111 18.510315,-41.939354 52.984802,-47.036156c21.646301,1.525604 44.346313,2.699242 57.259155,43.189568c3.784241,16.060349 1.425537,32.309357 -8.548706,46.305923c-32.287598,-17.699463 -56.452881,-5.617142 -78.497986,14.239166l-22.680908,3.072098z"/>
   <path fill="black" fill-rule="evenodd" stroke-width="1px" id="path6523" d="m314.201172,266.873383l113.548218,-85.800125c15.262329,-8.140701 32.094116,-9.689728 52.210266,2.555756c17.196228,15.621643 46.244446,58.898148 69.370361,88.355881l-64.623962,48.376648l-62.068176,-86.347778l-98.213745,75.212036c-7.559937,-13.194977 -9.328918,-28.681305 -10.222961,-42.352417z"/>
   <path fill="none" fill-rule="nonzero" stroke="black" stroke-width="34.999683" stroke-linecap="round" stroke-linejoin="round" stroke-miterlimit="4" stroke-dashoffset="0" id="path7410" d="m319.305695,473.674988c0.006958,45.002075 -36.472504,81.487183 -81.474579,81.487183c-45.002075,0 -81.481537,-36.485107 -81.474594,-81.487183c-0.006943,-45.002106 36.472519,-81.487183 81.474594,-81.487183c45.002075,0 81.481537,36.485077 81.474579,81.487183l0,0z"/>
   <path fill="none" fill-rule="nonzero" stroke="black" stroke-width="34.999683" stroke-linecap="round" stroke-linejoin="round" stroke-miterlimit="4" stroke-dashoffset="0" id="path8297" d="m723.300232,473.785583c0.006958,45.002075 -36.472534,81.487183 -81.474609,81.487183c-45.002136,0 -81.481567,-36.485107 -81.474609,-81.487183c-0.006958,-45.002106 36.472473,-81.487183 81.474609,-81.487183c45.002075,0 81.481567,36.485077 81.474609,81.487183l0,0z"/>
  </g>
 </g>
</svg>